<?xml version="1.0" encoding="utf-8"?>
<!-- Generator: Adobe Illustrator 21.0.0, SVG Export Plug-In . SVG Version: 6.00 Build 0)  -->
<svg version="1.1" id="Capa_1" xmlns="http://www.w3.org/2000/svg" xmlns:xlink="http://www.w3.org/1999/xlink" x="0px" y="0px"
	 viewBox="0 0 282.2 216.8" style="fill: #000" xml:space="preserve">
<g>
	<circle cx="133.8" cy="107.6" r="20.1"/>
	<path d="M217.9,102.7c-0.4-0.4-8.8-10.8-23.3-21.3c-19.4-14-40.4-21.3-60.9-21.3s-41.6,7.4-60.9,21.3
		c-14.5,10.4-22.9,20.8-23.3,21.3l-3,3.7l3,3.7c0.4,0.4,8.8,10.8,23.3,21.3c19.4,14,40.4,21.3,60.9,21.3s41.6-7.4,60.9-21.3
		c14.5-10.4,22.9-20.8,23.3-21.3l3-3.7L217.9,102.7z M133.7,137.8c-17.6,0-32-14.1-32-31.4c0-17.3,14.3-31.4,32-31.4
		c17.6,0,32,14.1,32,31.4C165.7,123.7,151.3,137.8,133.7,137.8z M62.4,106.4c3.5-3.7,9.7-9.7,17.9-15.5c5.3-3.8,12-7.9,19.8-11.4
		c-6.1,7.3-9.8,16.7-9.8,26.9s3.7,19.6,9.8,26.9c-7.8-3.4-14.5-7.5-19.8-11.4C72,116.1,65.9,110.1,62.4,106.4z M187.1,121.9
		c-5.3,3.8-12,7.9-19.8,11.4c6.1-7.3,9.8-16.7,9.8-26.9s-3.7-19.6-9.8-26.9c7.8,3.4,14.5,7.5,19.8,11.4c8.2,5.9,14.4,11.8,17.9,15.5
		C201.5,110.1,195.3,116.1,187.1,121.9z"/>
	<g>
		<path d="M259.9,98.6c-0.4-0.6-8.9-14.2-25-29.1c-21.5-20-46.5-33-72.2-37.5C137,27.4,109.1,31,82.1,42.5
			C61.9,51,49.2,60.9,48.7,61.3l-2.9,2.3c0.2,0.7,0.4,1.4,0.5,2.1c0-0.1,0-0.1,0,0c0.5,1,0.6,2.1,0.4,3.1l0.5,0.8
			c0.1,0.2,1.8,2.8,4.8,6.8c0.1,0,0.1-0.1,0.2-0.1c0.9-1.3,2.2-2.5,3.6-2.9c1.2-0.4,2.4-1,3.6-1.4c0.2-0.2,0.3-0.4,0.5-0.5
			c1-0.9,2-1.6,3.2-2.2c0.1,0,0.1-0.1,0.2-0.1c0.3-0.3,0.6-0.5,0.9-0.8c0,0,0-0.1-0.1-0.1c5.1-3.4,14-8.7,25.5-13.5
			c7.4-3.1,16.6-6.3,27-8.4c-0.4,0.3-0.8,0.6-1.1,0.9c12.8-4.7,28.5-3.6,42.1-1.7c14,2,29,5.6,40.6,13.6c0.8,0.6,1.5,1.2,2,1.8
			c0.4,0.3,0.7,0.5,1.1,0.8c-0.1-0.2-0.2-0.3-0.3-0.5c3.7,2.3,7.2,4.7,10.3,7c2.4,1.1,4.3,2.6,6.1,4.5c11.6,7.9,21.6,17.3,30.1,28.7
			c0.7,1,1.2,2,1.4,2.9c0.3,0.3,0.5,0.6,0.8,1c1.1,1.8,2.1,3.7,2.9,5.6c3.6-2.4,5.7-4,5.9-4.1l4.5-3.5L259.9,98.6z"/>
	</g>
	<g>
		<g>
			<path d="M46.4,65.8c0,12.7,0,25.3,0,38c0,9.3,14.4,9.3,14.4,0c0-12.7,0-25.3,0-38C60.8,56.6,46.4,56.6,46.4,65.8L46.4,65.8z"/>
		</g>
	</g>
	<g>
		<g>
			<path d="M208.8,113.8c7.5,7,14.8,14.3,21.8,21.8c6.3,6.8,16.5-3.4,10.2-10.2c-7-7.5-14.3-14.8-21.8-21.8
				C212.2,97.3,202,107.4,208.8,113.8L208.8,113.8z"/>
		</g>
	</g>
	<g>
		<path d="M236.4,125.2c-0.9-0.4-1.8-1-2.5-1.6c-0.2,0.2-0.3,0.5-0.5,0.7c0,0,0,0,0.1,0c-3.9,4.5-10.8,11.8-20.2,19.4
			c-6.1,4.9-13.8,10.4-22.8,15.2c0.3-0.4,0.5-0.8,0.8-1.1c-10.6,7.9-25.3,11.4-38.3,13.6c-13.4,2.2-28,3.2-40.6-0.5
			c-0.9-0.3-1.6-0.6-2.2-1c-0.4-0.1-0.8-0.3-1.2-0.4c0.1,0.1,0.3,0.2,0.4,0.3c-4-1-7.7-2.1-11.2-3.3c-2.5-0.3-4.6-1.1-6.6-2.3
			c-12.6-3.7-24.1-9.3-34.6-17.1c-0.2-0.1-0.4-0.3-0.5-0.4c0,0,0,0-0.1,0c-0.8-0.4-1.4-0.9-2-1.6c-0.4-0.2-0.7-0.4-1-0.7
			c-0.8-0.6-1.3-1.5-1.7-2.4c-0.3-0.4-0.5-0.8-0.7-1.2c0,0,0-0.1-0.1-0.1c-0.3-0.2-0.6-0.5-0.8-0.7c-2.8,3.2-4.4,5.3-4.5,5.5
			l-1.7,2.3c0.1,0.3,0.1,0.6,0.2,0.9c0,0.1,0.3,1.3,0.3,1.2c0.3,0.8,0.5,1.7,0.8,2.5l1,0.9c0.5,0.4,11.6,10.1,30,18.9
			c24.6,11.7,50.7,16.2,75.4,12.9s49.5-14.5,71.6-32.5c10.5-8.6,18.1-16.7,22.3-21.6c-1.6-1.5-3-3.2-4.4-4.9
			C239.5,126.1,237.9,125.9,236.4,125.2z"/>
	</g>
</g>
</svg>
