<?xml version="1.0" encoding="UTF-8" standalone="no"?>
<svg
   xmlns:dc="http://purl.org/dc/elements/1.1/"
   xmlns:cc="http://creativecommons.org/ns#"
   xmlns:rdf="http://www.w3.org/1999/02/22-rdf-syntax-ns#"
   xmlns:svg="http://www.w3.org/2000/svg"
   xmlns="http://www.w3.org/2000/svg"
   id="svg8"
   version="1.1"
   viewBox="0 0 8.963479 12.836941"
   height="12.836941mm"
   width="8.963479mm">
  <defs
     id="defs2" />
  <metadata
     id="metadata5">
    <rdf:RDF>
      <cc:Work
         rdf:about="">
        <dc:format>image/svg+xml</dc:format>
        <dc:type
           rdf:resource="http://purl.org/dc/dcmitype/StillImage" />
        <dc:title></dc:title>
      </cc:Work>
    </rdf:RDF>
  </metadata>
  <g
     transform="translate(-119.04194,-138.30465)"
     id="layer1">
    <path
       id="path75"
       d="m 121.55773,150.74103 c -1.15685,-0.60319 -1.74715,-1.19366 -2.15378,-2.15436 -0.79547,-1.87943 -0.27545,-3.87666 1.51515,-5.81924 1.21615,-1.31937 1.82866,-2.588 1.82866,-3.78752 0,-0.4629 0.11177,-0.74879 0.25752,-0.65871 0.58577,0.36202 4.54171,6.16399 4.81072,7.05564 0.62255,2.06341 -0.33747,4.44281 -2.1762,5.39365 -0.98056,0.50706 -3.08219,0.4919 -4.08207,-0.0295 z m 4.96615,-1.89827 c 0.60147,-0.66539 0.72591,-2.40631 0.27005,-3.77828 -0.52349,-1.57554 -0.77286,-1.78931 -0.65584,-0.56221 0.0747,0.78313 -0.056,1.18386 -0.59511,1.82452 -0.68187,0.81036 -0.68522,0.83494 -0.25907,1.89998 0.48244,1.20575 0.63731,1.28269 1.23997,0.61599 z"
       style="fill:#007bce;fill-opacity:1;stroke-width:0.26458335" />
  </g>
</svg>
