<?xml version="1.0" encoding="UTF-8"?>
<!DOCTYPE svg PUBLIC "-//W3C//DTD SVG 1.1//EN" "http://www.w3.org/Graphics/SVG/1.1/DTD/svg11.dtd">
<!-- Creator: CorelDRAW X7 -->
<svg xmlns="http://www.w3.org/2000/svg" xml:space="preserve" width="0.185626in" height="0.241079in" version="1.1" style="shape-rendering:geometricPrecision; text-rendering:geometricPrecision; image-rendering:optimizeQuality; fill-rule:evenodd; clip-rule:evenodd"
viewBox="0 0 19 25"
 xmlns:xlink="http://www.w3.org/1999/xlink">
 <defs>
  <style type="text/css">
   <![CDATA[
    .fil0 {fill:#545454}
    .fil1 {fill:#5D5D5A}
   ]]>
  </style>
 </defs>
 <g id="Capa_x0020_1">
  <metadata id="CorelCorpID_0Corel-Layer"/>
  <path class="fil0" d="M19 13c0,-1 0,-1 0,-1l-19 6c0,0 0,1 0,1l0 6c0,0 0,0 0,0l19 -6c0,0 0,0 0,0l0 -6z"/>
  <path class="fil1" d="M0 13c0,0 0,0 0,0l19 6c0,0 0,0 0,0l0 -6c0,-1 0,-1 0,-1l-19 -6c0,0 0,0 0,1l0 6z"/>
  <path class="fil1" d="M19 0c0,0 0,0 0,0l-19 6c0,0 0,0 0,1l0 6c0,0 0,0 0,0l19 -6c0,0 0,0 0,-1l0 -6z"/>
 </g>
</svg>
